<?xml version="1.0" encoding="utf-8"?>
<!-- Generator: Adobe Illustrator 23.0.2, SVG Export Plug-In . SVG Version: 6.00 Build 0)  -->
<svg version="1.1" id="Layer_1" xmlns="http://www.w3.org/2000/svg" xmlns:xlink="http://www.w3.org/1999/xlink" x="0px" y="0px"
	 viewBox="0 0 22 22" style="enable-background:new 0 0 22 22;" xml:space="preserve">
<style type="text/css">
	.st0{fill:#009C5E;}
	.st1{fill:#565F51;}
	.st2{fill:#FFFFFF;stroke:#000000;stroke-width:0.75;stroke-miterlimit:10;}
</style>
<path d="M21.6,2.4L10,0C9.9,0,9.8,0,9.6,0.1C9.5,0.2,9.5,0.3,9.4,0.4L8.7,4H0.5C0.2,4,0,4.2,0,4.5v17C0,21.8,0.2,22,0.5,22h12
	c0.3,0,0.5-0.2,0.5-0.5v-2.6l5,1c0.1,0,0.3,0,0.4-0.1s0.2-0.2,0.2-0.3L22,3C22,2.8,21.9,2.5,21.6,2.4z"/>
<path class="st0" d="M12,7.3L12,7.3v5.2v0.1v5.7l0,0V21H1V5h8.1l0,0H12V7.3z"/>
<path class="st1" d="M17.7,18.9l-4.7-1v-4.6c0.3,0.1,0.7,0.1,1,0.1c1.9,0,3.5-1.6,3.5-3.5S15.9,6.5,14,6.5c-0.3,0-0.7,0-1,0.1V4.5
	C13,4.2,12.8,4,12.5,4H9.7l0.6-2.9l10.6,2.2L17.7,18.9z"/>
<path class="st2" d="M13,12.3V7.7c0.3-0.1,0.7-0.2,1-0.2c1.4,0,2.5,1.1,2.5,2.5s-1.1,2.5-2.5,2.5C13.7,12.5,13.3,12.4,13,12.3z"/>
</svg>
